<svg width="400" height="448" viewBox="0 0 400 448" fill="none" xmlns="http://www.w3.org/2000/svg">
    <path d="M395 224C395 248.7 374.847 272.408 339.185 290.239C303.823 307.92 254.621 319 200 319C145.379 319 96.177 307.92 60.8147 290.239C25.1534 272.408 5 248.7 5 224C5 199.3 25.1534 175.592 60.8147 157.761C96.177 140.08 145.379 129 200 129C254.621 129 303.823 140.08 339.185 157.761C374.847 175.592 395 199.3 395 224Z"
          stroke="black" stroke-width="10"/>
    <path d="M297.5 392.875C276.109 405.225 245.501 399.626 212.228 377.657C179.235 355.873 145.038 318.803 117.728 271.5C90.4173 224.197 75.4119 176.046 73.0431 136.581C70.6542 96.7823 81.1091 67.4751 102.5 55.125C123.891 42.775 154.499 48.3744 187.772 70.3427C220.765 92.1268 254.962 129.197 282.272 176.5C309.583 223.803 324.588 271.954 326.957 311.419C329.346 351.218 318.891 380.525 297.5 392.875Z"
          stroke="black" stroke-width="10"/>
    <path d="M297.5 55.125C318.891 67.4751 329.346 96.7823 326.957 136.581C324.588 176.046 309.583 224.197 282.272 271.5C254.962 318.803 220.765 355.873 187.772 377.657C154.499 399.626 123.891 405.225 102.5 392.875C81.1091 380.525 70.6542 351.218 73.0431 311.419C75.4119 271.954 90.4173 223.803 117.728 176.5C145.038 129.197 179.235 92.1268 212.228 70.3428C245.501 48.3744 276.109 42.775 297.5 55.125Z"
          stroke="black" stroke-width="10"/>
    <circle cx="200" cy="224" r="25" fill="black"/>
    <circle cx="322" cy="89" r="10" fill="white" stroke="black" stroke-width="10"/>
    <circle cx="75" cy="296" r="10" fill="white" stroke="black" stroke-width="10"/>
    <circle cx="225" cy="347" r="10" fill="white" stroke="black" stroke-width="10"/>
    <circle cx="165" cy="59" r="10" fill="white" stroke="black" stroke-width="10"/>
    <circle cx="45" cy="167" r="10" fill="white" stroke="black" stroke-width="10"/>
    <circle cx="352" cy="283" r="10" fill="white" stroke="black" stroke-width="10"/>
</svg>
