<svg width="420" height="420" viewBox="0 0 420 420" fill="none" xmlns="http://www.w3.org/2000/svg">
    <circle cx="210" cy="210" r="195" stroke="black" stroke-width="10"/>
    <circle cx="210" cy="210" r="145" stroke="black" stroke-width="10"/>
    <circle cx="210" cy="210" r="95" stroke="black" stroke-width="10"/>
    <circle cx="210" cy="210" r="20" fill="black" stroke="black" stroke-width="10"/>
    <circle cx="115" cy="210" r="10" fill="white" stroke="black" stroke-width="10"/>
    <circle cx="305" cy="210" r="10" fill="white" stroke="black" stroke-width="10"/>
    <circle cx="354" cy="192" r="10" fill="white" stroke="black" stroke-width="10"/>
    <circle cx="228" cy="67" r="10" fill="white" stroke="black" stroke-width="10"/>
    <circle cx="192" cy="67" r="10" fill="white" stroke="black" stroke-width="10"/>
    <circle cx="228" cy="15" r="10" fill="white" stroke="black" stroke-width="10"/>
    <circle cx="192" cy="15" r="10" fill="white" stroke="black" stroke-width="10"/>
    <circle cx="228" cy="405" r="10" fill="white" stroke="black" stroke-width="10"/>
    <circle cx="192" cy="405" r="10" fill="white" stroke="black" stroke-width="10"/>
    <circle cx="231" cy="355" r="10" fill="white" stroke="black" stroke-width="10"/>
    <circle cx="195" cy="355" r="10" fill="white" stroke="black" stroke-width="10"/>
    <circle cx="66" cy="192" r="10" fill="white" stroke="black" stroke-width="10"/>
    <circle cx="354" cy="228" r="10" fill="white" stroke="black" stroke-width="10"/>
    <circle cx="405" cy="192" r="10" fill="white" stroke="black" stroke-width="10"/>
    <circle cx="405" cy="228" r="10" fill="white" stroke="black" stroke-width="10"/>
    <circle cx="66" cy="228" r="10" fill="white" stroke="black" stroke-width="10"/>
    <circle cx="15" cy="192" r="10" fill="white" stroke="black" stroke-width="10"/>
    <circle cx="15" cy="228" r="10" fill="white" stroke="black" stroke-width="10"/>
</svg>
