<svg width="110" height="110" viewBox="0 0 110 110" fill="none" xmlns="http://www.w3.org/2000/svg">
    <path d="M56 3.26795L55 2.6906L54 3.26795L10.6987 28.268L9.69873 28.8453V30V80V81.1547L10.6987 81.732L54 106.732L55 107.309L56 106.732L99.3013 81.732L100.301 81.1547V80V30V28.8453L99.3013 28.268L56 3.26795Z"
          stroke="#FAFFFF" stroke-width="4"/>
    <path d="M56 33.2679L55 32.6906L54 33.2679L36.6795 43.2679L35.6795 43.8453V45V65V66.1547L36.6795 66.732L54 76.7321L55 77.3094L56 76.7321L73.3205 66.732L74.3205 66.1547V65V45V43.8453L73.3205 43.2679L56 33.2679Z"
          fill="#006666" fill-opacity="0.7" stroke="#FAFFFF" stroke-width="4"/>
    <path d="M54.8253 55.75L54.8253 105.75" stroke="#FAFFFF" stroke-width="4" stroke-linecap="square"/>
    <path d="M98.3013 30L55 55L11.6987 30" stroke="#FAFFFF" stroke-width="4" stroke-linecap="square"/>
    <path d="M29.6891 40.3868L55 25.7735L80.3109 40.3868V69.6132L55 84.2265L29.6891 69.6132V40.3868Z" stroke="#001A1A"
          stroke-width="10"/>
    <path d="M56 18.2679L55 17.6906L54 18.2679L23.6891 35.7679L22.6891 36.3453V37.5V72.5V73.6547L23.6891 74.2321L54 91.732L55 92.3094L56 91.732L86.3109 74.2321L87.3109 73.6547V72.5V37.5V36.3453L86.3109 35.7679L56 18.2679Z"
          stroke="#FAFFFF" stroke-width="4"/>
</svg>
