<svg width="1450" height="382" viewBox="0 0 1450 382" fill="none" xmlns="http://www.w3.org/2000/svg">
    <g clip-path="url(#clip0_214_2)">
        <rect width="1450" height="518" fill="url(#paint0_linear_214_2)"/>
        <g filter="url(#filter0_d_214_2)">
            <mask id="path-3-outside-1_214_2" maskUnits="userSpaceOnUse" x="470" y="137" width="508" height="107"
                  fill="black">
                <rect fill="white" x="470" y="137" width="508" height="107"/>
                <path d="M515.365 199.85C518.365 203.05 520.365 206.15 521.365 209.15C522.465 212.15 523.015 215.85 523.015 220.25C523.015 226.75 521.015 231.9 517.015 235.7C513.015 239.4 506.565 241.25 497.665 241.25C488.865 241.25 482.415 239.4 478.315 235.7C474.315 231.9 472.315 226.75 472.315 220.25V207.5H482.815V220.85C482.815 224.25 484.015 227 486.415 229.1C488.915 231.2 492.665 232.25 497.665 232.25C502.665 232.25 506.365 231.2 508.765 229.1C511.265 227 512.515 224.25 512.515 220.85C512.515 217.75 512.165 215.15 511.465 213.05C510.865 210.95 509.315 208.7 506.815 206.3L480.415 180.5C477.315 177.3 475.165 174.2 473.965 171.2C472.865 168.2 472.315 164.55 472.315 160.25C472.315 153.75 474.365 148.65 478.465 144.95C482.565 141.15 488.865 139.25 497.365 139.25C505.765 139.25 511.865 141.15 515.665 144.95C519.565 148.65 521.515 153.75 521.515 160.25V173H511.015V159.65C511.015 156.15 509.865 153.4 507.565 151.4C505.265 149.3 501.715 148.25 496.915 148.25C492.115 148.25 488.565 149.3 486.265 151.4C483.965 153.4 482.815 156.15 482.815 159.65C482.815 162.75 483.115 165.35 483.715 167.45C484.415 169.55 486.015 171.75 488.515 174.05L515.365 199.85ZM589.022 150.5H569.522V239H559.022V150.5H539.522V141.5H589.022V150.5ZM606.97 141.5H617.47V220.25C617.47 223.65 618.22 226.5 619.72 228.8C621.22 231.1 624.27 232.25 628.87 232.25C632.07 232.25 635.02 231.45 637.72 229.85C640.42 228.15 642.57 226.15 644.17 223.85C645.87 221.45 646.72 219.25 646.72 217.25V141.5H657.22V239H652.72L648.82 229.4C646.72 232.8 643.92 235.65 640.42 237.95C637.02 240.15 633.22 241.25 629.02 241.25C623.62 241.25 619.27 240.35 615.97 238.55C612.77 236.65 610.47 234.1 609.07 230.9C607.67 227.7 606.97 224.15 606.97 220.25V141.5ZM687.278 239V141.5H711.428C719.428 141.5 725.378 143.4 729.278 147.2C733.278 150.9 735.278 156 735.278 162.5V218C735.278 224.5 733.328 229.65 729.428 233.45C725.528 237.15 719.528 239 711.428 239H687.278ZM724.778 162.5C724.778 158.8 723.628 155.9 721.328 153.8C719.128 151.6 715.828 150.5 711.428 150.5H697.778V230H711.428C715.928 230 719.278 228.95 721.478 226.85C723.678 224.65 724.778 221.7 724.778 218V162.5ZM784.011 239H758.511V230H766.011V150.5H758.511V141.5H784.011V150.5H776.511V230H784.011V239ZM807.946 141.5H818.446V220.25C818.446 223.65 819.196 226.5 820.696 228.8C822.196 231.1 825.246 232.25 829.846 232.25C833.046 232.25 835.996 231.45 838.696 229.85C841.396 228.15 843.546 226.15 845.146 223.85C846.846 221.45 847.696 219.25 847.696 217.25V141.5H858.196V239H853.696L849.796 229.4C847.696 232.8 844.896 235.65 841.396 237.95C837.996 240.15 834.196 241.25 829.996 241.25C824.596 241.25 820.246 240.35 816.946 238.55C813.746 236.65 811.446 234.1 810.046 230.9C808.646 227.7 807.946 224.15 807.946 220.25V141.5ZM888.255 239V141.5H892.755L896.505 151.1C898.505 147.6 901.205 144.75 904.605 142.55C908.005 140.35 911.755 139.25 915.855 139.25C921.255 139.25 925.505 140.25 928.605 142.25C931.705 144.25 933.905 146.9 935.205 150.2C937.305 147 939.955 144.4 943.155 142.4C946.455 140.3 950.105 139.25 954.105 139.25C959.405 139.25 963.555 140.2 966.555 142.1C969.655 143.9 971.855 146.4 973.155 149.6C974.555 152.7 975.255 156.25 975.255 160.25V239H964.755V160.25C964.755 156.85 964.055 154 962.655 151.7C961.255 149.4 958.355 148.25 953.955 148.25C951.055 148.25 948.305 149.1 945.705 150.8C943.105 152.4 941.005 154.4 939.405 156.8C937.805 159.1 937.005 161.25 937.005 163.25V239H926.505V160.25C926.505 156.85 925.805 154 924.405 151.7C923.005 149.4 920.105 148.25 915.705 148.25C912.805 148.25 910.055 149.05 907.455 150.65C904.855 152.25 902.755 154.2 901.155 156.5C899.555 158.7 898.755 160.8 898.755 162.8V239H888.255Z"/>
            </mask>
            <path d="M515.365 199.85C518.365 203.05 520.365 206.15 521.365 209.15C522.465 212.15 523.015 215.85 523.015 220.25C523.015 226.75 521.015 231.9 517.015 235.7C513.015 239.4 506.565 241.25 497.665 241.25C488.865 241.25 482.415 239.4 478.315 235.7C474.315 231.9 472.315 226.75 472.315 220.25V207.5H482.815V220.85C482.815 224.25 484.015 227 486.415 229.1C488.915 231.2 492.665 232.25 497.665 232.25C502.665 232.25 506.365 231.2 508.765 229.1C511.265 227 512.515 224.25 512.515 220.85C512.515 217.75 512.165 215.15 511.465 213.05C510.865 210.95 509.315 208.7 506.815 206.3L480.415 180.5C477.315 177.3 475.165 174.2 473.965 171.2C472.865 168.2 472.315 164.55 472.315 160.25C472.315 153.75 474.365 148.65 478.465 144.95C482.565 141.15 488.865 139.25 497.365 139.25C505.765 139.25 511.865 141.15 515.665 144.95C519.565 148.65 521.515 153.75 521.515 160.25V173H511.015V159.65C511.015 156.15 509.865 153.4 507.565 151.4C505.265 149.3 501.715 148.25 496.915 148.25C492.115 148.25 488.565 149.3 486.265 151.4C483.965 153.4 482.815 156.15 482.815 159.65C482.815 162.75 483.115 165.35 483.715 167.45C484.415 169.55 486.015 171.75 488.515 174.05L515.365 199.85ZM589.022 150.5H569.522V239H559.022V150.5H539.522V141.5H589.022V150.5ZM606.97 141.5H617.47V220.25C617.47 223.65 618.22 226.5 619.72 228.8C621.22 231.1 624.27 232.25 628.87 232.25C632.07 232.25 635.02 231.45 637.72 229.85C640.42 228.15 642.57 226.15 644.17 223.85C645.87 221.45 646.72 219.25 646.72 217.25V141.5H657.22V239H652.72L648.82 229.4C646.72 232.8 643.92 235.65 640.42 237.95C637.02 240.15 633.22 241.25 629.02 241.25C623.62 241.25 619.27 240.35 615.97 238.55C612.77 236.65 610.47 234.1 609.07 230.9C607.67 227.7 606.97 224.15 606.97 220.25V141.5ZM687.278 239V141.5H711.428C719.428 141.5 725.378 143.4 729.278 147.2C733.278 150.9 735.278 156 735.278 162.5V218C735.278 224.5 733.328 229.65 729.428 233.45C725.528 237.15 719.528 239 711.428 239H687.278ZM724.778 162.5C724.778 158.8 723.628 155.9 721.328 153.8C719.128 151.6 715.828 150.5 711.428 150.5H697.778V230H711.428C715.928 230 719.278 228.95 721.478 226.85C723.678 224.65 724.778 221.7 724.778 218V162.5ZM784.011 239H758.511V230H766.011V150.5H758.511V141.5H784.011V150.5H776.511V230H784.011V239ZM807.946 141.5H818.446V220.25C818.446 223.65 819.196 226.5 820.696 228.8C822.196 231.1 825.246 232.25 829.846 232.25C833.046 232.25 835.996 231.45 838.696 229.85C841.396 228.15 843.546 226.15 845.146 223.85C846.846 221.45 847.696 219.25 847.696 217.25V141.5H858.196V239H853.696L849.796 229.4C847.696 232.8 844.896 235.65 841.396 237.95C837.996 240.15 834.196 241.25 829.996 241.25C824.596 241.25 820.246 240.35 816.946 238.55C813.746 236.65 811.446 234.1 810.046 230.9C808.646 227.7 807.946 224.15 807.946 220.25V141.5ZM888.255 239V141.5H892.755L896.505 151.1C898.505 147.6 901.205 144.75 904.605 142.55C908.005 140.35 911.755 139.25 915.855 139.25C921.255 139.25 925.505 140.25 928.605 142.25C931.705 144.25 933.905 146.9 935.205 150.2C937.305 147 939.955 144.4 943.155 142.4C946.455 140.3 950.105 139.25 954.105 139.25C959.405 139.25 963.555 140.2 966.555 142.1C969.655 143.9 971.855 146.4 973.155 149.6C974.555 152.7 975.255 156.25 975.255 160.25V239H964.755V160.25C964.755 156.85 964.055 154 962.655 151.7C961.255 149.4 958.355 148.25 953.955 148.25C951.055 148.25 948.305 149.1 945.705 150.8C943.105 152.4 941.005 154.4 939.405 156.8C937.805 159.1 937.005 161.25 937.005 163.25V239H926.505V160.25C926.505 156.85 925.805 154 924.405 151.7C923.005 149.4 920.105 148.25 915.705 148.25C912.805 148.25 910.055 149.05 907.455 150.65C904.855 152.25 902.755 154.2 901.155 156.5C899.555 158.7 898.755 160.8 898.755 162.8V239H888.255Z"
                  fill="#FAFFFF"/>
            <path d="M515.365 199.85L516.825 198.482C516.801 198.457 516.776 198.432 516.751 198.408L515.365 199.85ZM521.365 209.15L519.468 209.782C519.474 209.801 519.481 209.82 519.488 209.839L521.365 209.15ZM517.015 235.7L518.374 237.168C518.38 237.162 518.387 237.156 518.393 237.15L517.015 235.7ZM478.315 235.7L476.938 237.15C476.95 237.162 476.963 237.173 476.976 237.185L478.315 235.7ZM472.315 207.5V205.5C471.211 205.5 470.315 206.395 470.315 207.5H472.315ZM482.815 207.5H484.815C484.815 206.395 483.92 205.5 482.815 205.5V207.5ZM486.415 229.1L485.098 230.605C485.109 230.614 485.119 230.623 485.129 230.631L486.415 229.1ZM508.765 229.1L507.479 227.569C507.469 227.577 507.459 227.586 507.448 227.595L508.765 229.1ZM511.465 213.05L509.542 213.599C509.55 213.627 509.559 213.655 509.568 213.682L511.465 213.05ZM506.815 206.3L505.418 207.73C505.422 207.735 505.426 207.739 505.43 207.743L506.815 206.3ZM480.415 180.5L478.979 181.892C478.992 181.905 479.005 181.918 479.018 181.93L480.415 180.5ZM473.965 171.2L472.088 171.889C472.094 171.907 472.101 171.925 472.108 171.943L473.965 171.2ZM478.465 144.95L479.805 146.435C479.812 146.429 479.818 146.423 479.825 146.417L478.465 144.95ZM515.665 144.95L514.251 146.364C514.264 146.377 514.276 146.389 514.289 146.401L515.665 144.95ZM521.515 173V175C522.62 175 523.515 174.105 523.515 173H521.515ZM511.015 173H509.015C509.015 174.105 509.911 175 511.015 175V173ZM507.565 151.4L506.217 152.877C506.229 152.888 506.241 152.899 506.253 152.909L507.565 151.4ZM486.265 151.4L487.578 152.909C487.59 152.899 487.602 152.888 487.614 152.877L486.265 151.4ZM483.715 167.45L481.792 167.999C481.8 168.027 481.809 168.055 481.818 168.082L483.715 167.45ZM488.515 174.05L489.901 172.608C489.891 172.598 489.88 172.588 489.87 172.578L488.515 174.05ZM513.906 201.218C516.781 204.284 518.588 207.141 519.468 209.782L523.263 208.518C522.143 205.159 519.95 201.816 516.825 198.482L513.906 201.218ZM519.488 209.839C520.483 212.552 521.015 216.003 521.015 220.25H525.015C525.015 215.697 524.448 211.748 523.243 208.461L519.488 209.839ZM521.015 220.25C521.015 226.308 519.17 230.895 515.638 234.25L518.393 237.15C522.861 232.905 525.015 227.192 525.015 220.25H521.015ZM515.657 234.232C512.2 237.429 506.363 239.25 497.665 239.25V243.25C506.768 243.25 513.83 241.371 518.374 237.168L515.657 234.232ZM497.665 239.25C489.081 239.25 483.223 237.435 479.655 234.215L476.976 237.185C481.608 241.365 488.649 243.25 497.665 243.25V239.25ZM479.693 234.25C476.161 230.895 474.315 226.308 474.315 220.25H470.315C470.315 227.192 472.47 232.905 476.938 237.15L479.693 234.25ZM474.315 220.25V207.5H470.315V220.25H474.315ZM472.315 209.5H482.815V205.5H472.315V209.5ZM480.815 207.5V220.85H484.815V207.5H480.815ZM480.815 220.85C480.815 224.784 482.233 228.098 485.098 230.605L487.732 227.595C485.798 225.902 484.815 223.716 484.815 220.85H480.815ZM485.129 230.631C488.138 233.159 492.434 234.25 497.665 234.25V230.25C492.897 230.25 489.693 229.241 487.702 227.569L485.129 230.631ZM497.665 234.25C502.888 234.25 507.16 233.162 510.082 230.605L507.448 227.595C505.571 229.238 502.443 230.25 497.665 230.25V234.25ZM510.052 230.631C513.025 228.134 514.515 224.813 514.515 220.85H510.515C510.515 223.687 509.506 225.866 507.479 227.569L510.052 230.631ZM514.515 220.85C514.515 217.614 514.152 214.785 513.363 212.418L509.568 213.682C510.179 215.515 510.515 217.886 510.515 220.85H514.515ZM513.388 212.501C512.65 209.916 510.82 207.372 508.2 204.857L505.43 207.743C507.811 210.028 509.081 211.984 509.542 213.599L513.388 212.501ZM508.213 204.87L481.813 179.07L479.018 181.93L505.418 207.73L508.213 204.87ZM481.852 179.108C478.869 176.029 476.897 173.143 475.822 170.457L472.108 171.943C473.434 175.257 475.762 178.571 478.979 181.892L481.852 179.108ZM475.843 170.511C474.847 167.794 474.315 164.391 474.315 160.25H470.315C470.315 164.709 470.884 168.606 472.088 171.889L475.843 170.511ZM474.315 160.25C474.315 154.206 476.201 149.688 479.805 146.435L477.126 143.465C472.53 147.612 470.315 153.294 470.315 160.25H474.315ZM479.825 146.417C483.403 143.101 489.115 141.25 497.365 141.25V137.25C488.616 137.25 481.728 139.199 477.106 143.483L479.825 146.417ZM497.365 141.25C505.525 141.25 510.991 143.104 514.251 146.364L517.08 143.536C512.74 139.196 506.006 137.25 497.365 137.25V141.25ZM514.289 146.401C517.709 149.646 519.515 154.175 519.515 160.25H523.515C523.515 153.325 521.422 147.654 517.042 143.499L514.289 146.401ZM519.515 160.25V173H523.515V160.25H519.515ZM521.515 171H511.015V175H521.515V171ZM513.015 173V159.65H509.015V173H513.015ZM513.015 159.65C513.015 155.666 511.682 152.329 508.878 149.891L506.253 152.909C508.049 154.471 509.015 156.634 509.015 159.65H513.015ZM508.914 149.923C506.09 147.345 501.954 146.25 496.915 146.25V150.25C501.477 150.25 504.441 151.255 506.217 152.877L508.914 149.923ZM496.915 146.25C491.877 146.25 487.741 147.345 484.917 149.923L487.614 152.877C489.39 151.255 492.354 150.25 496.915 150.25V146.25ZM484.953 149.891C482.149 152.329 480.815 155.666 480.815 159.65H484.815C484.815 156.634 485.782 154.471 487.578 152.909L484.953 149.891ZM480.815 159.65C480.815 162.865 481.125 165.663 481.792 167.999L485.638 166.901C485.106 165.037 484.815 162.635 484.815 159.65H480.815ZM481.818 168.082C482.668 170.631 484.534 173.105 487.161 175.522L489.87 172.578C487.497 170.395 486.163 168.469 485.613 166.818L481.818 168.082ZM487.13 175.492L513.98 201.292L516.751 198.408L489.901 172.608L487.13 175.492ZM589.022 150.5V152.5C590.127 152.5 591.022 151.605 591.022 150.5H589.022ZM569.522 150.5V148.5C568.418 148.5 567.522 149.395 567.522 150.5H569.522ZM569.522 239V241C570.627 241 571.522 240.105 571.522 239H569.522ZM559.022 239H557.022C557.022 240.105 557.918 241 559.022 241V239ZM559.022 150.5H561.022C561.022 149.395 560.127 148.5 559.022 148.5V150.5ZM539.522 150.5H537.522C537.522 151.605 538.418 152.5 539.522 152.5V150.5ZM539.522 141.5V139.5C538.418 139.5 537.522 140.395 537.522 141.5H539.522ZM589.022 141.5H591.022C591.022 140.395 590.127 139.5 589.022 139.5V141.5ZM589.022 148.5H569.522V152.5H589.022V148.5ZM567.522 150.5V239H571.522V150.5H567.522ZM569.522 237H559.022V241H569.522V237ZM561.022 239V150.5H557.022V239H561.022ZM559.022 148.5H539.522V152.5H559.022V148.5ZM541.522 150.5V141.5H537.522V150.5H541.522ZM539.522 143.5H589.022V139.5H539.522V143.5ZM587.022 141.5V150.5H591.022V141.5H587.022ZM606.97 141.5V139.5C605.865 139.5 604.97 140.395 604.97 141.5H606.97ZM617.47 141.5H619.47C619.47 140.395 618.574 139.5 617.47 139.5V141.5ZM637.72 229.85L638.739 231.571C638.755 231.561 638.77 231.552 638.785 231.542L637.72 229.85ZM644.17 223.85L642.538 222.694C642.534 222.699 642.531 222.703 642.528 222.708L644.17 223.85ZM646.72 141.5V139.5C645.615 139.5 644.72 140.395 644.72 141.5H646.72ZM657.22 141.5H659.22C659.22 140.395 658.324 139.5 657.22 139.5V141.5ZM657.22 239V241C658.324 241 659.22 240.105 659.22 239H657.22ZM652.72 239L650.867 239.753C651.173 240.507 651.906 241 652.72 241V239ZM648.82 229.4L650.673 228.647C650.389 227.949 649.738 227.47 648.987 227.407C648.236 227.344 647.514 227.708 647.118 228.349L648.82 229.4ZM640.42 237.95L641.506 239.629C641.51 239.627 641.514 239.624 641.518 239.621L640.42 237.95ZM615.97 238.55L614.949 240.27C614.97 240.282 614.991 240.294 615.012 240.306L615.97 238.55ZM609.07 230.9L607.237 231.702L607.237 231.702L609.07 230.9ZM606.97 143.5H617.47V139.5H606.97V143.5ZM615.47 141.5V220.25H619.47V141.5H615.47ZM615.47 220.25C615.47 223.945 616.287 227.198 618.045 229.893L621.395 227.707C620.152 225.802 619.47 223.355 619.47 220.25H615.47ZM618.045 229.893C620.11 233.06 624.056 234.25 628.87 234.25V230.25C624.483 230.25 622.33 229.14 621.395 227.707L618.045 229.893ZM628.87 234.25C632.421 234.25 635.724 233.357 638.739 231.571L636.7 228.129C634.315 229.543 631.718 230.25 628.87 230.25V234.25ZM638.785 231.542C641.681 229.719 644.039 227.541 645.812 224.992L642.528 222.708C641.101 224.759 639.158 226.581 636.654 228.158L638.785 231.542ZM645.802 225.006C647.634 222.419 648.72 219.817 648.72 217.25H644.72C644.72 218.683 644.105 220.481 642.538 222.694L645.802 225.006ZM648.72 217.25V141.5H644.72V217.25H648.72ZM646.72 143.5H657.22V139.5H646.72V143.5ZM655.22 141.5V239H659.22V141.5H655.22ZM657.22 237H652.72V241H657.22V237ZM654.573 238.247L650.673 228.647L646.967 230.153L650.867 239.753L654.573 238.247ZM647.118 228.349C645.179 231.489 642.589 234.131 639.321 236.279L641.518 239.621C645.25 237.169 648.261 234.111 650.521 230.451L647.118 228.349ZM639.333 236.271C636.269 238.253 632.849 239.25 629.02 239.25V243.25C633.59 243.25 637.77 242.047 641.506 239.629L639.333 236.271ZM629.02 239.25C623.818 239.25 619.833 238.379 616.927 236.794L615.012 240.306C618.706 242.321 623.422 243.25 629.02 243.25V239.25ZM616.991 236.83C614.126 235.129 612.123 232.889 610.902 230.098L607.237 231.702C608.816 235.311 611.414 238.171 614.949 240.27L616.991 236.83ZM610.902 230.098C609.625 227.179 608.97 223.906 608.97 220.25H604.97C604.97 224.394 605.715 228.221 607.237 231.702L610.902 230.098ZM608.97 220.25V141.5H604.97V220.25H608.97ZM687.278 239H685.278C685.278 240.105 686.174 241 687.278 241V239ZM687.278 141.5V139.5C686.174 139.5 685.278 140.395 685.278 141.5H687.278ZM729.278 147.2L727.883 148.632C727.895 148.645 727.908 148.656 727.92 148.668L729.278 147.2ZM729.428 233.45L730.805 234.901C730.811 234.895 730.818 234.889 730.824 234.882L729.428 233.45ZM721.328 153.8L719.914 155.214C719.936 155.236 719.957 155.257 719.98 155.277L721.328 153.8ZM697.778 150.5V148.5C696.674 148.5 695.778 149.395 695.778 150.5H697.778ZM697.778 230H695.778C695.778 231.105 696.674 232 697.778 232V230ZM721.478 226.85L722.859 228.297C722.87 228.286 722.882 228.275 722.893 228.264L721.478 226.85ZM689.278 239V141.5H685.278V239H689.278ZM687.278 143.5H711.428V139.5H687.278V143.5ZM711.428 143.5C719.15 143.5 724.5 145.336 727.883 148.632L730.674 145.768C726.257 141.464 719.707 139.5 711.428 139.5V143.5ZM727.92 148.668C731.432 151.917 733.278 156.441 733.278 162.5H737.278C737.278 155.559 735.124 149.883 730.636 145.732L727.92 148.668ZM733.278 162.5V218H737.278V162.5H733.278ZM733.278 218C733.278 224.073 731.472 228.666 728.033 232.018L730.824 234.882C735.184 230.634 737.278 224.927 737.278 218H733.278ZM728.052 231.999C724.674 235.204 719.27 237 711.428 237V241C719.787 241 726.383 239.096 730.805 234.901L728.052 231.999ZM711.428 237H687.278V241H711.428V237ZM726.778 162.5C726.778 158.353 725.47 154.873 722.677 152.323L719.98 155.277C721.787 156.927 722.778 159.247 722.778 162.5H726.778ZM722.743 152.386C720.035 149.678 716.137 148.5 711.428 148.5V152.5C715.52 152.5 718.221 153.522 719.914 155.214L722.743 152.386ZM711.428 148.5H697.778V152.5H711.428V148.5ZM695.778 150.5V230H699.778V150.5H695.778ZM697.778 232H711.428V228H697.778V232ZM711.428 232C716.199 232 720.142 230.89 722.859 228.297L720.097 225.403C718.414 227.01 715.657 228 711.428 228V232ZM722.893 228.264C725.537 225.619 726.778 222.123 726.778 218H722.778C722.778 221.277 721.819 223.681 720.064 225.436L722.893 228.264ZM726.778 218V162.5H722.778V218H726.778ZM784.011 239V241C785.115 241 786.011 240.105 786.011 239H784.011ZM758.511 239H756.511C756.511 240.105 757.406 241 758.511 241V239ZM758.511 230V228C757.406 228 756.511 228.895 756.511 230H758.511ZM766.011 230V232C767.115 232 768.011 231.105 768.011 230H766.011ZM766.011 150.5H768.011C768.011 149.395 767.115 148.5 766.011 148.5V150.5ZM758.511 150.5H756.511C756.511 151.605 757.406 152.5 758.511 152.5V150.5ZM758.511 141.5V139.5C757.406 139.5 756.511 140.395 756.511 141.5H758.511ZM784.011 141.5H786.011C786.011 140.395 785.115 139.5 784.011 139.5V141.5ZM784.011 150.5V152.5C785.115 152.5 786.011 151.605 786.011 150.5H784.011ZM776.511 150.5V148.5C775.406 148.5 774.511 149.395 774.511 150.5H776.511ZM776.511 230H774.511C774.511 231.105 775.406 232 776.511 232V230ZM784.011 230H786.011C786.011 228.895 785.115 228 784.011 228V230ZM784.011 237H758.511V241H784.011V237ZM760.511 239V230H756.511V239H760.511ZM758.511 232H766.011V228H758.511V232ZM768.011 230V150.5H764.011V230H768.011ZM766.011 148.5H758.511V152.5H766.011V148.5ZM760.511 150.5V141.5H756.511V150.5H760.511ZM758.511 143.5H784.011V139.5H758.511V143.5ZM782.011 141.5V150.5H786.011V141.5H782.011ZM784.011 148.5H776.511V152.5H784.011V148.5ZM774.511 150.5V230H778.511V150.5H774.511ZM776.511 232H784.011V228H776.511V232ZM782.011 230V239H786.011V230H782.011ZM807.946 141.5V139.5C806.842 139.5 805.946 140.395 805.946 141.5H807.946ZM818.446 141.5H820.446C820.446 140.395 819.551 139.5 818.446 139.5V141.5ZM838.696 229.85L839.716 231.571C839.731 231.561 839.747 231.552 839.762 231.542L838.696 229.85ZM845.146 223.85L843.514 222.694C843.511 222.699 843.508 222.703 843.504 222.708L845.146 223.85ZM847.696 141.5V139.5C846.592 139.5 845.696 140.395 845.696 141.5H847.696ZM858.196 141.5H860.196C860.196 140.395 859.301 139.5 858.196 139.5V141.5ZM858.196 239V241C859.301 241 860.196 240.105 860.196 239H858.196ZM853.696 239L851.843 239.753C852.15 240.507 852.882 241 853.696 241V239ZM849.796 229.4L851.649 228.647C851.366 227.949 850.714 227.47 849.964 227.407C849.213 227.344 848.491 227.708 848.095 228.349L849.796 229.4ZM841.396 237.95L842.483 239.629C842.487 239.627 842.491 239.624 842.495 239.621L841.396 237.95ZM816.946 238.55L815.925 240.27C815.946 240.282 815.967 240.294 815.989 240.306L816.946 238.55ZM810.046 230.9L808.214 231.702L808.214 231.702L810.046 230.9ZM807.946 143.5H818.446V139.5H807.946V143.5ZM816.446 141.5V220.25H820.446V141.5H816.446ZM816.446 220.25C816.446 223.945 817.264 227.198 819.021 229.893L822.372 227.707C821.129 225.802 820.446 223.355 820.446 220.25H816.446ZM819.021 229.893C821.087 233.06 825.033 234.25 829.846 234.25V230.25C825.46 230.25 823.306 229.14 822.372 227.707L819.021 229.893ZM829.846 234.25C833.398 234.25 836.701 233.357 839.716 231.571L837.677 228.129C835.292 229.543 832.695 230.25 829.846 230.25V234.25ZM839.762 231.542C842.658 229.719 845.015 227.541 846.788 224.992L843.504 222.708C842.078 224.759 840.135 226.581 837.631 228.158L839.762 231.542ZM846.778 225.006C848.611 222.419 849.696 219.817 849.696 217.25H845.696C845.696 218.683 845.082 220.481 843.514 222.694L846.778 225.006ZM849.696 217.25V141.5H845.696V217.25H849.696ZM847.696 143.5H858.196V139.5H847.696V143.5ZM856.196 141.5V239H860.196V141.5H856.196ZM858.196 237H853.696V241H858.196V237ZM855.549 238.247L851.649 228.647L847.943 230.153L851.843 239.753L855.549 238.247ZM848.095 228.349C846.155 231.489 843.566 234.131 840.298 236.279L842.495 239.621C846.227 237.169 849.237 234.111 851.498 230.451L848.095 228.349ZM840.31 236.271C837.246 238.253 833.826 239.25 829.996 239.25V243.25C834.567 243.25 838.747 242.047 842.483 239.629L840.31 236.271ZM829.996 239.25C824.794 239.25 820.81 238.379 817.904 236.794L815.989 240.306C819.683 242.321 824.398 243.25 829.996 243.25V239.25ZM817.967 236.83C815.102 235.129 813.1 232.889 811.879 230.098L808.214 231.702C809.793 235.311 812.39 238.171 815.925 240.27L817.967 236.83ZM811.879 230.098C810.601 227.179 809.946 223.906 809.946 220.25H805.946C805.946 224.394 806.691 228.221 808.214 231.702L811.879 230.098ZM809.946 220.25V141.5H805.946V220.25H809.946ZM888.255 239H886.255C886.255 240.105 887.15 241 888.255 241V239ZM888.255 141.5V139.5C887.15 139.5 886.255 140.395 886.255 141.5H888.255ZM892.755 141.5L894.618 140.772C894.318 140.005 893.579 139.5 892.755 139.5V141.5ZM896.505 151.1L894.642 151.828C894.922 152.545 895.59 153.038 896.358 153.095C897.127 153.151 897.859 152.761 898.241 152.092L896.505 151.1ZM904.605 142.55L905.691 144.229L905.691 144.229L904.605 142.55ZM928.605 142.25L929.689 140.569L929.689 140.569L928.605 142.25ZM935.205 150.2L933.344 150.933C933.618 151.628 934.256 152.113 935 152.189C935.743 152.266 936.467 151.922 936.877 151.297L935.205 150.2ZM943.155 142.4L944.215 144.096C944.219 144.093 944.224 144.09 944.229 144.087L943.155 142.4ZM966.555 142.1L965.485 143.79C965.506 143.803 965.528 143.817 965.551 143.83L966.555 142.1ZM973.155 149.6L971.302 150.353C971.312 150.376 971.322 150.4 971.332 150.423L973.155 149.6ZM975.255 239V241C976.359 241 977.255 240.105 977.255 239H975.255ZM964.755 239H962.755C962.755 240.105 963.65 241 964.755 241V239ZM945.705 150.8L946.753 152.503C946.769 152.494 946.784 152.484 946.799 152.474L945.705 150.8ZM939.405 156.8L941.047 157.942C941.054 157.931 941.062 157.92 941.069 157.909L939.405 156.8ZM937.005 239V241C938.109 241 939.005 240.105 939.005 239H937.005ZM926.505 239H924.505C924.505 240.105 925.4 241 926.505 241V239ZM907.455 150.65L906.407 148.947L906.407 148.947L907.455 150.65ZM901.155 156.5L902.772 157.676C902.781 157.665 902.789 157.654 902.797 157.642L901.155 156.5ZM898.755 239V241C899.859 241 900.755 240.105 900.755 239H898.755ZM890.255 239V141.5H886.255V239H890.255ZM888.255 143.5H892.755V139.5H888.255V143.5ZM890.892 142.228L894.642 151.828L898.368 150.372L894.618 140.772L890.892 142.228ZM898.241 152.092C900.082 148.871 902.559 146.256 905.691 144.229L903.518 140.871C899.851 143.244 896.928 146.329 894.768 150.108L898.241 152.092ZM905.691 144.229C908.763 142.241 912.135 141.25 915.855 141.25V137.25C911.374 137.25 907.246 138.459 903.518 140.871L905.691 144.229ZM915.855 141.25C921.039 141.25 924.861 142.215 927.521 143.931L929.689 140.569C926.149 138.285 921.471 137.25 915.855 137.25V141.25ZM927.521 143.931C930.284 145.713 932.204 148.039 933.344 150.933L937.066 149.467C935.606 145.761 933.126 142.787 929.689 140.569L927.521 143.931ZM936.877 151.297C938.821 148.335 941.263 145.941 944.215 144.096L942.095 140.704C938.646 142.859 935.789 145.665 933.533 149.103L936.877 151.297ZM944.229 144.087C947.2 142.196 950.476 141.25 954.105 141.25V137.25C949.734 137.25 945.71 138.404 942.081 140.713L944.229 144.087ZM954.105 141.25C959.201 141.25 962.926 142.169 965.485 143.79L967.625 140.41C964.184 138.231 959.609 137.25 954.105 137.25V141.25ZM965.551 143.83C968.283 145.416 970.175 147.58 971.302 150.353L975.008 148.847C973.534 145.22 971.027 142.384 967.559 140.37L965.551 143.83ZM971.332 150.423C972.597 153.223 973.255 156.484 973.255 160.25H977.255C977.255 156.016 976.513 152.177 974.978 148.777L971.332 150.423ZM973.255 160.25V239H977.255V160.25H973.255ZM975.255 237H964.755V241H975.255V237ZM966.755 239V160.25H962.755V239H966.755ZM966.755 160.25C966.755 156.579 965.998 153.346 964.363 150.66L960.946 152.74C962.112 154.654 962.755 157.121 962.755 160.25H966.755ZM964.363 150.66C962.413 147.456 958.594 146.25 953.955 146.25V150.25C958.116 150.25 960.097 151.344 960.946 152.74L964.363 150.66ZM953.955 146.25C950.638 146.25 947.512 147.229 944.61 149.126L946.799 152.474C949.098 150.971 951.472 150.25 953.955 150.25V146.25ZM944.657 149.097C941.826 150.839 939.51 153.037 937.741 155.691L941.069 157.909C942.5 155.763 944.384 153.961 946.753 152.503L944.657 149.097ZM937.763 155.658C936.02 158.163 935.005 160.708 935.005 163.25H939.005C939.005 161.792 939.589 160.037 941.047 157.942L937.763 155.658ZM935.005 163.25V239H939.005V163.25H935.005ZM937.005 237H926.505V241H937.005V237ZM928.505 239V160.25H924.505V239H928.505ZM928.505 160.25C928.505 156.579 927.748 153.346 926.113 150.66L922.696 152.74C923.862 154.654 924.505 157.121 924.505 160.25H928.505ZM926.113 150.66C924.163 147.456 920.344 146.25 915.705 146.25V150.25C919.866 150.25 921.847 151.344 922.696 152.74L926.113 150.66ZM915.705 146.25C912.415 146.25 909.305 147.163 906.407 148.947L908.503 152.353C910.805 150.937 913.195 150.25 915.705 150.25V146.25ZM906.407 148.947C903.594 150.678 901.284 152.812 899.513 155.358L902.797 157.642C904.226 155.588 906.116 153.822 908.503 152.353L906.407 148.947ZM899.537 155.324C897.777 157.745 896.755 160.249 896.755 162.8H900.755C900.755 161.351 901.333 159.655 902.772 157.676L899.537 155.324ZM896.755 162.8V239H900.755V162.8H896.755ZM898.755 237H888.255V241H898.755V237Z"
                  fill="#FAFFFF" mask="url(#path-3-outside-1_214_2)"/>
        </g>
    </g>
    <defs>
        <filter id="filter0_d_214_2" x="472.315" y="139.25" width="507.939" height="107" filterUnits="userSpaceOnUse"
                color-interpolation-filters="sRGB">
            <feFlood flood-opacity="0" result="BackgroundImageFix"/>
            <feColorMatrix in="SourceAlpha" type="matrix" values="0 0 0 0 0 0 0 0 0 0 0 0 0 0 0 0 0 0 127 0"
                           result="hardAlpha"/>
            <feOffset dx="5" dy="5"/>
            <feComposite in2="hardAlpha" operator="out"/>
            <feColorMatrix type="matrix" values="0 0 0 0 0.98 0 0 0 0 1 0 0 0 0 1 0 0 0 0.3 0"/>
            <feBlend mode="normal" in2="BackgroundImageFix" result="effect1_dropShadow_214_2"/>
            <feBlend mode="normal" in="SourceGraphic" in2="effect1_dropShadow_214_2" result="shape"/>
        </filter>
        <linearGradient id="paint0_linear_214_2" x1="725" y1="0" x2="725" y2="518" gradientUnits="userSpaceOnUse">
            <stop stop-color="#001A1A"/>
            <stop offset="1" stop-opacity="0"/>
        </linearGradient>
        <clipPath id="clip0_214_2">
            <rect width="1450" height="382" rx="17" fill="white"/>
        </clipPath>
    </defs>
</svg>
