<svg width="1450" height="518" viewBox="0 0 1450 518" fill="none" xmlns="http://www.w3.org/2000/svg">
    <g clip-path="url(#clip0_214_2)">
        <rect width="1450" height="518" fill="url(#paint0_linear_214_2)"/>
        <mask id="path-2-outside-1_214_2" maskUnits="userSpaceOnUse" x="471" y="206" width="508" height="107"
              fill="black">
            <rect fill="white" x="471" y="206" width="508" height="107"/>
            <path d="M516.365 268.85C519.365 272.05 521.365 275.15 522.365 278.15C523.465 281.15 524.015 284.85 524.015 289.25C524.015 295.75 522.015 300.9 518.015 304.7C514.015 308.4 507.565 310.25 498.665 310.25C489.865 310.25 483.415 308.4 479.315 304.7C475.315 300.9 473.315 295.75 473.315 289.25V276.5H483.815V289.85C483.815 293.25 485.015 296 487.415 298.1C489.915 300.2 493.665 301.25 498.665 301.25C503.665 301.25 507.365 300.2 509.765 298.1C512.265 296 513.515 293.25 513.515 289.85C513.515 286.75 513.165 284.15 512.465 282.05C511.865 279.95 510.315 277.7 507.815 275.3L481.415 249.5C478.315 246.3 476.165 243.2 474.965 240.2C473.865 237.2 473.315 233.55 473.315 229.25C473.315 222.75 475.365 217.65 479.465 213.95C483.565 210.15 489.865 208.25 498.365 208.25C506.765 208.25 512.865 210.15 516.665 213.95C520.565 217.65 522.515 222.75 522.515 229.25V242H512.015V228.65C512.015 225.15 510.865 222.4 508.565 220.4C506.265 218.3 502.715 217.25 497.915 217.25C493.115 217.25 489.565 218.3 487.265 220.4C484.965 222.4 483.815 225.15 483.815 228.65C483.815 231.75 484.115 234.35 484.715 236.45C485.415 238.55 487.015 240.75 489.515 243.05L516.365 268.85ZM590.022 219.5H570.522V308H560.022V219.5H540.522V210.5H590.022V219.5ZM607.97 210.5H618.47V289.25C618.47 292.65 619.22 295.5 620.72 297.8C622.22 300.1 625.27 301.25 629.87 301.25C633.07 301.25 636.02 300.45 638.72 298.85C641.42 297.15 643.57 295.15 645.17 292.85C646.87 290.45 647.72 288.25 647.72 286.25V210.5H658.22V308H653.72L649.82 298.4C647.72 301.8 644.92 304.65 641.42 306.95C638.02 309.15 634.22 310.25 630.02 310.25C624.62 310.25 620.27 309.35 616.97 307.55C613.77 305.65 611.47 303.1 610.07 299.9C608.67 296.7 607.97 293.15 607.97 289.25V210.5ZM688.278 308V210.5H712.428C720.428 210.5 726.378 212.4 730.278 216.2C734.278 219.9 736.278 225 736.278 231.5V287C736.278 293.5 734.328 298.65 730.428 302.45C726.528 306.15 720.528 308 712.428 308H688.278ZM725.778 231.5C725.778 227.8 724.628 224.9 722.328 222.8C720.128 220.6 716.828 219.5 712.428 219.5H698.778V299H712.428C716.928 299 720.278 297.95 722.478 295.85C724.678 293.65 725.778 290.7 725.778 287V231.5ZM785.011 308H759.511V299H767.011V219.5H759.511V210.5H785.011V219.5H777.511V299H785.011V308ZM808.946 210.5H819.446V289.25C819.446 292.65 820.196 295.5 821.696 297.8C823.196 300.1 826.246 301.25 830.846 301.25C834.046 301.25 836.996 300.45 839.696 298.85C842.396 297.15 844.546 295.15 846.146 292.85C847.846 290.45 848.696 288.25 848.696 286.25V210.5H859.196V308H854.696L850.796 298.4C848.696 301.8 845.896 304.65 842.396 306.95C838.996 309.15 835.196 310.25 830.996 310.25C825.596 310.25 821.246 309.35 817.946 307.55C814.746 305.65 812.446 303.1 811.046 299.9C809.646 296.7 808.946 293.15 808.946 289.25V210.5ZM889.255 308V210.5H893.755L897.505 220.1C899.505 216.6 902.205 213.75 905.605 211.55C909.005 209.35 912.755 208.25 916.855 208.25C922.255 208.25 926.505 209.25 929.605 211.25C932.705 213.25 934.905 215.9 936.205 219.2C938.305 216 940.955 213.4 944.155 211.4C947.455 209.3 951.105 208.25 955.105 208.25C960.405 208.25 964.555 209.2 967.555 211.1C970.655 212.9 972.855 215.4 974.155 218.6C975.555 221.7 976.255 225.25 976.255 229.25V308H965.755V229.25C965.755 225.85 965.055 223 963.655 220.7C962.255 218.4 959.355 217.25 954.955 217.25C952.055 217.25 949.305 218.1 946.705 219.8C944.105 221.4 942.005 223.4 940.405 225.8C938.805 228.1 938.005 230.25 938.005 232.25V308H927.505V229.25C927.505 225.85 926.805 223 925.405 220.7C924.005 218.4 921.105 217.25 916.705 217.25C913.805 217.25 911.055 218.05 908.455 219.65C905.855 221.25 903.755 223.2 902.155 225.5C900.555 227.7 899.755 229.8 899.755 231.8V308H889.255Z"/>
        </mask>
        <path d="M516.365 268.85C519.365 272.05 521.365 275.15 522.365 278.15C523.465 281.15 524.015 284.85 524.015 289.25C524.015 295.75 522.015 300.9 518.015 304.7C514.015 308.4 507.565 310.25 498.665 310.25C489.865 310.25 483.415 308.4 479.315 304.7C475.315 300.9 473.315 295.75 473.315 289.25V276.5H483.815V289.85C483.815 293.25 485.015 296 487.415 298.1C489.915 300.2 493.665 301.25 498.665 301.25C503.665 301.25 507.365 300.2 509.765 298.1C512.265 296 513.515 293.25 513.515 289.85C513.515 286.75 513.165 284.15 512.465 282.05C511.865 279.95 510.315 277.7 507.815 275.3L481.415 249.5C478.315 246.3 476.165 243.2 474.965 240.2C473.865 237.2 473.315 233.55 473.315 229.25C473.315 222.75 475.365 217.65 479.465 213.95C483.565 210.15 489.865 208.25 498.365 208.25C506.765 208.25 512.865 210.15 516.665 213.95C520.565 217.65 522.515 222.75 522.515 229.25V242H512.015V228.65C512.015 225.15 510.865 222.4 508.565 220.4C506.265 218.3 502.715 217.25 497.915 217.25C493.115 217.25 489.565 218.3 487.265 220.4C484.965 222.4 483.815 225.15 483.815 228.65C483.815 231.75 484.115 234.35 484.715 236.45C485.415 238.55 487.015 240.75 489.515 243.05L516.365 268.85ZM590.022 219.5H570.522V308H560.022V219.5H540.522V210.5H590.022V219.5ZM607.97 210.5H618.47V289.25C618.47 292.65 619.22 295.5 620.72 297.8C622.22 300.1 625.27 301.25 629.87 301.25C633.07 301.25 636.02 300.45 638.72 298.85C641.42 297.15 643.57 295.15 645.17 292.85C646.87 290.45 647.72 288.25 647.72 286.25V210.5H658.22V308H653.72L649.82 298.4C647.72 301.8 644.92 304.65 641.42 306.95C638.02 309.15 634.22 310.25 630.02 310.25C624.62 310.25 620.27 309.35 616.97 307.55C613.77 305.65 611.47 303.1 610.07 299.9C608.67 296.7 607.97 293.15 607.97 289.25V210.5ZM688.278 308V210.5H712.428C720.428 210.5 726.378 212.4 730.278 216.2C734.278 219.9 736.278 225 736.278 231.5V287C736.278 293.5 734.328 298.65 730.428 302.45C726.528 306.15 720.528 308 712.428 308H688.278ZM725.778 231.5C725.778 227.8 724.628 224.9 722.328 222.8C720.128 220.6 716.828 219.5 712.428 219.5H698.778V299H712.428C716.928 299 720.278 297.95 722.478 295.85C724.678 293.65 725.778 290.7 725.778 287V231.5ZM785.011 308H759.511V299H767.011V219.5H759.511V210.5H785.011V219.5H777.511V299H785.011V308ZM808.946 210.5H819.446V289.25C819.446 292.65 820.196 295.5 821.696 297.8C823.196 300.1 826.246 301.25 830.846 301.25C834.046 301.25 836.996 300.45 839.696 298.85C842.396 297.15 844.546 295.15 846.146 292.85C847.846 290.45 848.696 288.25 848.696 286.25V210.5H859.196V308H854.696L850.796 298.4C848.696 301.8 845.896 304.65 842.396 306.95C838.996 309.15 835.196 310.25 830.996 310.25C825.596 310.25 821.246 309.35 817.946 307.55C814.746 305.65 812.446 303.1 811.046 299.9C809.646 296.7 808.946 293.15 808.946 289.25V210.5ZM889.255 308V210.5H893.755L897.505 220.1C899.505 216.6 902.205 213.75 905.605 211.55C909.005 209.35 912.755 208.25 916.855 208.25C922.255 208.25 926.505 209.25 929.605 211.25C932.705 213.25 934.905 215.9 936.205 219.2C938.305 216 940.955 213.4 944.155 211.4C947.455 209.3 951.105 208.25 955.105 208.25C960.405 208.25 964.555 209.2 967.555 211.1C970.655 212.9 972.855 215.4 974.155 218.6C975.555 221.7 976.255 225.25 976.255 229.25V308H965.755V229.25C965.755 225.85 965.055 223 963.655 220.7C962.255 218.4 959.355 217.25 954.955 217.25C952.055 217.25 949.305 218.1 946.705 219.8C944.105 221.4 942.005 223.4 940.405 225.8C938.805 228.1 938.005 230.25 938.005 232.25V308H927.505V229.25C927.505 225.85 926.805 223 925.405 220.7C924.005 218.4 921.105 217.25 916.705 217.25C913.805 217.25 911.055 218.05 908.455 219.65C905.855 221.25 903.755 223.2 902.155 225.5C900.555 227.7 899.755 229.8 899.755 231.8V308H889.255Z"
              fill="#003333"/>
        <path d="M516.365 268.85L517.825 267.482C517.801 267.457 517.776 267.432 517.751 267.408L516.365 268.85ZM522.365 278.15L520.468 278.782C520.474 278.801 520.481 278.82 520.488 278.839L522.365 278.15ZM518.015 304.7L519.374 306.168C519.38 306.162 519.387 306.156 519.393 306.15L518.015 304.7ZM479.315 304.7L477.938 306.15C477.95 306.162 477.963 306.173 477.976 306.185L479.315 304.7ZM473.315 276.5V274.5C472.211 274.5 471.315 275.395 471.315 276.5H473.315ZM483.815 276.5H485.815C485.815 275.395 484.92 274.5 483.815 274.5V276.5ZM487.415 298.1L486.098 299.605C486.109 299.614 486.119 299.623 486.129 299.631L487.415 298.1ZM509.765 298.1L508.479 296.569C508.469 296.577 508.459 296.586 508.448 296.595L509.765 298.1ZM512.465 282.05L510.542 282.599C510.55 282.627 510.559 282.655 510.568 282.682L512.465 282.05ZM507.815 275.3L506.418 276.73C506.422 276.735 506.426 276.739 506.43 276.743L507.815 275.3ZM481.415 249.5L479.979 250.892C479.992 250.905 480.005 250.918 480.018 250.93L481.415 249.5ZM474.965 240.2L473.088 240.889C473.094 240.907 473.101 240.925 473.108 240.943L474.965 240.2ZM479.465 213.95L480.805 215.435C480.812 215.429 480.818 215.423 480.825 215.417L479.465 213.95ZM516.665 213.95L515.251 215.364C515.264 215.377 515.276 215.389 515.289 215.401L516.665 213.95ZM522.515 242V244C523.62 244 524.515 243.105 524.515 242H522.515ZM512.015 242H510.015C510.015 243.105 510.911 244 512.015 244V242ZM508.565 220.4L507.217 221.877C507.229 221.888 507.241 221.899 507.253 221.909L508.565 220.4ZM487.265 220.4L488.578 221.909C488.59 221.899 488.602 221.888 488.614 221.877L487.265 220.4ZM484.715 236.45L482.792 236.999C482.8 237.027 482.809 237.055 482.818 237.082L484.715 236.45ZM489.515 243.05L490.901 241.608C490.891 241.598 490.88 241.588 490.87 241.578L489.515 243.05ZM514.906 270.218C517.781 273.284 519.588 276.141 520.468 278.782L524.263 277.518C523.143 274.159 520.95 270.816 517.825 267.482L514.906 270.218ZM520.488 278.839C521.483 281.552 522.015 285.003 522.015 289.25H526.015C526.015 284.697 525.448 280.748 524.243 277.461L520.488 278.839ZM522.015 289.25C522.015 295.308 520.17 299.895 516.638 303.25L519.393 306.15C523.861 301.905 526.015 296.192 526.015 289.25H522.015ZM516.657 303.232C513.2 306.429 507.363 308.25 498.665 308.25V312.25C507.768 312.25 514.83 310.371 519.374 306.168L516.657 303.232ZM498.665 308.25C490.081 308.25 484.223 306.435 480.655 303.215L477.976 306.185C482.608 310.365 489.649 312.25 498.665 312.25V308.25ZM480.693 303.25C477.161 299.895 475.315 295.308 475.315 289.25H471.315C471.315 296.192 473.47 301.905 477.938 306.15L480.693 303.25ZM475.315 289.25V276.5H471.315V289.25H475.315ZM473.315 278.5H483.815V274.5H473.315V278.5ZM481.815 276.5V289.85H485.815V276.5H481.815ZM481.815 289.85C481.815 293.784 483.233 297.098 486.098 299.605L488.732 296.595C486.798 294.902 485.815 292.716 485.815 289.85H481.815ZM486.129 299.631C489.138 302.159 493.434 303.25 498.665 303.25V299.25C493.897 299.25 490.693 298.241 488.702 296.569L486.129 299.631ZM498.665 303.25C503.888 303.25 508.16 302.162 511.082 299.605L508.448 296.595C506.571 298.238 503.443 299.25 498.665 299.25V303.25ZM511.052 299.631C514.025 297.134 515.515 293.813 515.515 289.85H511.515C511.515 292.687 510.506 294.866 508.479 296.569L511.052 299.631ZM515.515 289.85C515.515 286.614 515.152 283.785 514.363 281.418L510.568 282.682C511.179 284.515 511.515 286.886 511.515 289.85H515.515ZM514.388 281.501C513.65 278.916 511.82 276.372 509.2 273.857L506.43 276.743C508.811 279.028 510.081 280.984 510.542 282.599L514.388 281.501ZM509.213 273.87L482.813 248.07L480.018 250.93L506.418 276.73L509.213 273.87ZM482.852 248.108C479.869 245.029 477.897 242.143 476.822 239.457L473.108 240.943C474.434 244.257 476.762 247.571 479.979 250.892L482.852 248.108ZM476.843 239.511C475.847 236.794 475.315 233.391 475.315 229.25H471.315C471.315 233.709 471.884 237.606 473.088 240.889L476.843 239.511ZM475.315 229.25C475.315 223.206 477.201 218.688 480.805 215.435L478.126 212.465C473.53 216.612 471.315 222.294 471.315 229.25H475.315ZM480.825 215.417C484.403 212.101 490.115 210.25 498.365 210.25V206.25C489.616 206.25 482.728 208.199 478.106 212.483L480.825 215.417ZM498.365 210.25C506.525 210.25 511.991 212.104 515.251 215.364L518.08 212.536C513.74 208.196 507.006 206.25 498.365 206.25V210.25ZM515.289 215.401C518.709 218.646 520.515 223.175 520.515 229.25H524.515C524.515 222.325 522.422 216.654 518.042 212.499L515.289 215.401ZM520.515 229.25V242H524.515V229.25H520.515ZM522.515 240H512.015V244H522.515V240ZM514.015 242V228.65H510.015V242H514.015ZM514.015 228.65C514.015 224.666 512.682 221.329 509.878 218.891L507.253 221.909C509.049 223.471 510.015 225.634 510.015 228.65H514.015ZM509.914 218.923C507.09 216.345 502.954 215.25 497.915 215.25V219.25C502.477 219.25 505.441 220.255 507.217 221.877L509.914 218.923ZM497.915 215.25C492.877 215.25 488.741 216.345 485.917 218.923L488.614 221.877C490.39 220.255 493.354 219.25 497.915 219.25V215.25ZM485.953 218.891C483.149 221.329 481.815 224.666 481.815 228.65H485.815C485.815 225.634 486.782 223.471 488.578 221.909L485.953 218.891ZM481.815 228.65C481.815 231.865 482.125 234.663 482.792 236.999L486.638 235.901C486.106 234.037 485.815 231.635 485.815 228.65H481.815ZM482.818 237.082C483.668 239.631 485.534 242.105 488.161 244.522L490.87 241.578C488.497 239.395 487.163 237.469 486.613 235.818L482.818 237.082ZM488.13 244.492L514.98 270.292L517.751 267.408L490.901 241.608L488.13 244.492ZM590.022 219.5V221.5C591.127 221.5 592.022 220.605 592.022 219.5H590.022ZM570.522 219.5V217.5C569.418 217.5 568.522 218.395 568.522 219.5H570.522ZM570.522 308V310C571.627 310 572.522 309.105 572.522 308H570.522ZM560.022 308H558.022C558.022 309.105 558.918 310 560.022 310V308ZM560.022 219.5H562.022C562.022 218.395 561.127 217.5 560.022 217.5V219.5ZM540.522 219.5H538.522C538.522 220.605 539.418 221.5 540.522 221.5V219.5ZM540.522 210.5V208.5C539.418 208.5 538.522 209.395 538.522 210.5H540.522ZM590.022 210.5H592.022C592.022 209.395 591.127 208.5 590.022 208.5V210.5ZM590.022 217.5H570.522V221.5H590.022V217.5ZM568.522 219.5V308H572.522V219.5H568.522ZM570.522 306H560.022V310H570.522V306ZM562.022 308V219.5H558.022V308H562.022ZM560.022 217.5H540.522V221.5H560.022V217.5ZM542.522 219.5V210.5H538.522V219.5H542.522ZM540.522 212.5H590.022V208.5H540.522V212.5ZM588.022 210.5V219.5H592.022V210.5H588.022ZM607.97 210.5V208.5C606.865 208.5 605.97 209.395 605.97 210.5H607.97ZM618.47 210.5H620.47C620.47 209.395 619.574 208.5 618.47 208.5V210.5ZM638.72 298.85L639.739 300.571C639.755 300.561 639.77 300.552 639.785 300.542L638.72 298.85ZM645.17 292.85L643.538 291.694C643.534 291.699 643.531 291.703 643.528 291.708L645.17 292.85ZM647.72 210.5V208.5C646.615 208.5 645.72 209.395 645.72 210.5H647.72ZM658.22 210.5H660.22C660.22 209.395 659.324 208.5 658.22 208.5V210.5ZM658.22 308V310C659.324 310 660.22 309.105 660.22 308H658.22ZM653.72 308L651.867 308.753C652.173 309.507 652.906 310 653.72 310V308ZM649.82 298.4L651.673 297.647C651.389 296.949 650.738 296.47 649.987 296.407C649.236 296.344 648.514 296.708 648.118 297.349L649.82 298.4ZM641.42 306.95L642.506 308.629C642.51 308.627 642.514 308.624 642.518 308.621L641.42 306.95ZM616.97 307.55L615.949 309.27C615.97 309.282 615.991 309.294 616.012 309.306L616.97 307.55ZM610.07 299.9L608.237 300.702L608.237 300.702L610.07 299.9ZM607.97 212.5H618.47V208.5H607.97V212.5ZM616.47 210.5V289.25H620.47V210.5H616.47ZM616.47 289.25C616.47 292.945 617.287 296.198 619.045 298.893L622.395 296.707C621.152 294.802 620.47 292.355 620.47 289.25H616.47ZM619.045 298.893C621.11 302.06 625.056 303.25 629.87 303.25V299.25C625.483 299.25 623.33 298.14 622.395 296.707L619.045 298.893ZM629.87 303.25C633.421 303.25 636.724 302.357 639.739 300.571L637.7 297.129C635.315 298.543 632.718 299.25 629.87 299.25V303.25ZM639.785 300.542C642.681 298.719 645.039 296.541 646.812 293.992L643.528 291.708C642.101 293.759 640.158 295.581 637.654 297.158L639.785 300.542ZM646.802 294.006C648.634 291.419 649.72 288.817 649.72 286.25H645.72C645.72 287.683 645.105 289.481 643.538 291.694L646.802 294.006ZM649.72 286.25V210.5H645.72V286.25H649.72ZM647.72 212.5H658.22V208.5H647.72V212.5ZM656.22 210.5V308H660.22V210.5H656.22ZM658.22 306H653.72V310H658.22V306ZM655.573 307.247L651.673 297.647L647.967 299.153L651.867 308.753L655.573 307.247ZM648.118 297.349C646.179 300.489 643.589 303.131 640.321 305.279L642.518 308.621C646.25 306.169 649.261 303.111 651.521 299.451L648.118 297.349ZM640.333 305.271C637.269 307.253 633.849 308.25 630.02 308.25V312.25C634.59 312.25 638.77 311.047 642.506 308.629L640.333 305.271ZM630.02 308.25C624.818 308.25 620.833 307.379 617.927 305.794L616.012 309.306C619.706 311.321 624.422 312.25 630.02 312.25V308.25ZM617.991 305.83C615.126 304.129 613.123 301.889 611.902 299.098L608.237 300.702C609.816 304.311 612.414 307.171 615.949 309.27L617.991 305.83ZM611.902 299.098C610.625 296.179 609.97 292.906 609.97 289.25H605.97C605.97 293.394 606.715 297.221 608.237 300.702L611.902 299.098ZM609.97 289.25V210.5H605.97V289.25H609.97ZM688.278 308H686.278C686.278 309.105 687.174 310 688.278 310V308ZM688.278 210.5V208.5C687.174 208.5 686.278 209.395 686.278 210.5H688.278ZM730.278 216.2L728.883 217.632C728.895 217.645 728.908 217.656 728.92 217.668L730.278 216.2ZM730.428 302.45L731.805 303.901C731.811 303.895 731.818 303.889 731.824 303.882L730.428 302.45ZM722.328 222.8L720.914 224.214C720.936 224.236 720.957 224.257 720.98 224.277L722.328 222.8ZM698.778 219.5V217.5C697.674 217.5 696.778 218.395 696.778 219.5H698.778ZM698.778 299H696.778C696.778 300.105 697.674 301 698.778 301V299ZM722.478 295.85L723.859 297.297C723.87 297.286 723.882 297.275 723.893 297.264L722.478 295.85ZM690.278 308V210.5H686.278V308H690.278ZM688.278 212.5H712.428V208.5H688.278V212.5ZM712.428 212.5C720.15 212.5 725.5 214.336 728.883 217.632L731.674 214.768C727.257 210.464 720.707 208.5 712.428 208.5V212.5ZM728.92 217.668C732.432 220.917 734.278 225.441 734.278 231.5H738.278C738.278 224.559 736.124 218.883 731.636 214.732L728.92 217.668ZM734.278 231.5V287H738.278V231.5H734.278ZM734.278 287C734.278 293.073 732.472 297.666 729.033 301.018L731.824 303.882C736.184 299.634 738.278 293.927 738.278 287H734.278ZM729.052 300.999C725.674 304.204 720.27 306 712.428 306V310C720.787 310 727.383 308.096 731.805 303.901L729.052 300.999ZM712.428 306H688.278V310H712.428V306ZM727.778 231.5C727.778 227.353 726.47 223.873 723.677 221.323L720.98 224.277C722.787 225.927 723.778 228.247 723.778 231.5H727.778ZM723.743 221.386C721.035 218.678 717.137 217.5 712.428 217.5V221.5C716.52 221.5 719.221 222.522 720.914 224.214L723.743 221.386ZM712.428 217.5H698.778V221.5H712.428V217.5ZM696.778 219.5V299H700.778V219.5H696.778ZM698.778 301H712.428V297H698.778V301ZM712.428 301C717.199 301 721.142 299.89 723.859 297.297L721.097 294.403C719.414 296.01 716.657 297 712.428 297V301ZM723.893 297.264C726.537 294.619 727.778 291.123 727.778 287H723.778C723.778 290.277 722.819 292.681 721.064 294.436L723.893 297.264ZM727.778 287V231.5H723.778V287H727.778ZM785.011 308V310C786.115 310 787.011 309.105 787.011 308H785.011ZM759.511 308H757.511C757.511 309.105 758.406 310 759.511 310V308ZM759.511 299V297C758.406 297 757.511 297.895 757.511 299H759.511ZM767.011 299V301C768.115 301 769.011 300.105 769.011 299H767.011ZM767.011 219.5H769.011C769.011 218.395 768.115 217.5 767.011 217.5V219.5ZM759.511 219.5H757.511C757.511 220.605 758.406 221.5 759.511 221.5V219.5ZM759.511 210.5V208.5C758.406 208.5 757.511 209.395 757.511 210.5H759.511ZM785.011 210.5H787.011C787.011 209.395 786.115 208.5 785.011 208.5V210.5ZM785.011 219.5V221.5C786.115 221.5 787.011 220.605 787.011 219.5H785.011ZM777.511 219.5V217.5C776.406 217.5 775.511 218.395 775.511 219.5H777.511ZM777.511 299H775.511C775.511 300.105 776.406 301 777.511 301V299ZM785.011 299H787.011C787.011 297.895 786.115 297 785.011 297V299ZM785.011 306H759.511V310H785.011V306ZM761.511 308V299H757.511V308H761.511ZM759.511 301H767.011V297H759.511V301ZM769.011 299V219.5H765.011V299H769.011ZM767.011 217.5H759.511V221.5H767.011V217.5ZM761.511 219.5V210.5H757.511V219.5H761.511ZM759.511 212.5H785.011V208.5H759.511V212.5ZM783.011 210.5V219.5H787.011V210.5H783.011ZM785.011 217.5H777.511V221.5H785.011V217.5ZM775.511 219.5V299H779.511V219.5H775.511ZM777.511 301H785.011V297H777.511V301ZM783.011 299V308H787.011V299H783.011ZM808.946 210.5V208.5C807.842 208.5 806.946 209.395 806.946 210.5H808.946ZM819.446 210.5H821.446C821.446 209.395 820.551 208.5 819.446 208.5V210.5ZM839.696 298.85L840.716 300.571C840.731 300.561 840.747 300.552 840.762 300.542L839.696 298.85ZM846.146 292.85L844.514 291.694C844.511 291.699 844.508 291.703 844.504 291.708L846.146 292.85ZM848.696 210.5V208.5C847.592 208.5 846.696 209.395 846.696 210.5H848.696ZM859.196 210.5H861.196C861.196 209.395 860.301 208.5 859.196 208.5V210.5ZM859.196 308V310C860.301 310 861.196 309.105 861.196 308H859.196ZM854.696 308L852.843 308.753C853.15 309.507 853.882 310 854.696 310V308ZM850.796 298.4L852.649 297.647C852.366 296.949 851.714 296.47 850.964 296.407C850.213 296.344 849.491 296.708 849.095 297.349L850.796 298.4ZM842.396 306.95L843.483 308.629C843.487 308.627 843.491 308.624 843.495 308.621L842.396 306.95ZM817.946 307.55L816.925 309.27C816.946 309.282 816.967 309.294 816.989 309.306L817.946 307.55ZM811.046 299.9L809.214 300.702L809.214 300.702L811.046 299.9ZM808.946 212.5H819.446V208.5H808.946V212.5ZM817.446 210.5V289.25H821.446V210.5H817.446ZM817.446 289.25C817.446 292.945 818.264 296.198 820.021 298.893L823.372 296.707C822.129 294.802 821.446 292.355 821.446 289.25H817.446ZM820.021 298.893C822.087 302.06 826.033 303.25 830.846 303.25V299.25C826.46 299.25 824.306 298.14 823.372 296.707L820.021 298.893ZM830.846 303.25C834.398 303.25 837.701 302.357 840.716 300.571L838.677 297.129C836.292 298.543 833.695 299.25 830.846 299.25V303.25ZM840.762 300.542C843.658 298.719 846.015 296.541 847.788 293.992L844.504 291.708C843.078 293.759 841.135 295.581 838.631 297.158L840.762 300.542ZM847.778 294.006C849.611 291.419 850.696 288.817 850.696 286.25H846.696C846.696 287.683 846.082 289.481 844.514 291.694L847.778 294.006ZM850.696 286.25V210.5H846.696V286.25H850.696ZM848.696 212.5H859.196V208.5H848.696V212.5ZM857.196 210.5V308H861.196V210.5H857.196ZM859.196 306H854.696V310H859.196V306ZM856.549 307.247L852.649 297.647L848.943 299.153L852.843 308.753L856.549 307.247ZM849.095 297.349C847.155 300.489 844.566 303.131 841.298 305.279L843.495 308.621C847.227 306.169 850.237 303.111 852.498 299.451L849.095 297.349ZM841.31 305.271C838.246 307.253 834.826 308.25 830.996 308.25V312.25C835.567 312.25 839.747 311.047 843.483 308.629L841.31 305.271ZM830.996 308.25C825.794 308.25 821.81 307.379 818.904 305.794L816.989 309.306C820.683 311.321 825.398 312.25 830.996 312.25V308.25ZM818.967 305.83C816.102 304.129 814.1 301.889 812.879 299.098L809.214 300.702C810.793 304.311 813.39 307.171 816.925 309.27L818.967 305.83ZM812.879 299.098C811.601 296.179 810.946 292.906 810.946 289.25H806.946C806.946 293.394 807.691 297.221 809.214 300.702L812.879 299.098ZM810.946 289.25V210.5H806.946V289.25H810.946ZM889.255 308H887.255C887.255 309.105 888.15 310 889.255 310V308ZM889.255 210.5V208.5C888.15 208.5 887.255 209.395 887.255 210.5H889.255ZM893.755 210.5L895.618 209.772C895.318 209.005 894.579 208.5 893.755 208.5V210.5ZM897.505 220.1L895.642 220.828C895.922 221.545 896.59 222.038 897.358 222.095C898.127 222.151 898.859 221.761 899.241 221.092L897.505 220.1ZM905.605 211.55L906.691 213.229L906.691 213.229L905.605 211.55ZM929.605 211.25L930.689 209.569L930.689 209.569L929.605 211.25ZM936.205 219.2L934.344 219.933C934.618 220.628 935.256 221.113 936 221.189C936.743 221.266 937.467 220.922 937.877 220.297L936.205 219.2ZM944.155 211.4L945.215 213.096C945.219 213.093 945.224 213.09 945.229 213.087L944.155 211.4ZM967.555 211.1L966.485 212.79C966.506 212.803 966.528 212.817 966.551 212.83L967.555 211.1ZM974.155 218.6L972.302 219.353C972.312 219.376 972.322 219.4 972.332 219.423L974.155 218.6ZM976.255 308V310C977.359 310 978.255 309.105 978.255 308H976.255ZM965.755 308H963.755C963.755 309.105 964.65 310 965.755 310V308ZM946.705 219.8L947.753 221.503C947.769 221.494 947.784 221.484 947.799 221.474L946.705 219.8ZM940.405 225.8L942.047 226.942C942.054 226.931 942.062 226.92 942.069 226.909L940.405 225.8ZM938.005 308V310C939.109 310 940.005 309.105 940.005 308H938.005ZM927.505 308H925.505C925.505 309.105 926.4 310 927.505 310V308ZM908.455 219.65L907.407 217.947L907.407 217.947L908.455 219.65ZM902.155 225.5L903.772 226.676C903.781 226.665 903.789 226.654 903.797 226.642L902.155 225.5ZM899.755 308V310C900.859 310 901.755 309.105 901.755 308H899.755ZM891.255 308V210.5H887.255V308H891.255ZM889.255 212.5H893.755V208.5H889.255V212.5ZM891.892 211.228L895.642 220.828L899.368 219.372L895.618 209.772L891.892 211.228ZM899.241 221.092C901.082 217.871 903.559 215.256 906.691 213.229L904.518 209.871C900.851 212.244 897.928 215.329 895.768 219.108L899.241 221.092ZM906.691 213.229C909.763 211.241 913.135 210.25 916.855 210.25V206.25C912.374 206.25 908.246 207.459 904.518 209.871L906.691 213.229ZM916.855 210.25C922.039 210.25 925.861 211.215 928.521 212.931L930.689 209.569C927.149 207.285 922.471 206.25 916.855 206.25V210.25ZM928.521 212.931C931.284 214.713 933.204 217.039 934.344 219.933L938.066 218.467C936.606 214.761 934.126 211.787 930.689 209.569L928.521 212.931ZM937.877 220.297C939.821 217.335 942.263 214.941 945.215 213.096L943.095 209.704C939.646 211.859 936.789 214.665 934.533 218.103L937.877 220.297ZM945.229 213.087C948.2 211.196 951.476 210.25 955.105 210.25V206.25C950.734 206.25 946.71 207.404 943.081 209.713L945.229 213.087ZM955.105 210.25C960.201 210.25 963.926 211.169 966.485 212.79L968.625 209.41C965.184 207.231 960.609 206.25 955.105 206.25V210.25ZM966.551 212.83C969.283 214.416 971.175 216.58 972.302 219.353L976.008 217.847C974.534 214.22 972.027 211.384 968.559 209.37L966.551 212.83ZM972.332 219.423C973.597 222.223 974.255 225.484 974.255 229.25H978.255C978.255 225.016 977.513 221.177 975.978 217.777L972.332 219.423ZM974.255 229.25V308H978.255V229.25H974.255ZM976.255 306H965.755V310H976.255V306ZM967.755 308V229.25H963.755V308H967.755ZM967.755 229.25C967.755 225.579 966.998 222.346 965.363 219.66L961.946 221.74C963.112 223.654 963.755 226.121 963.755 229.25H967.755ZM965.363 219.66C963.413 216.456 959.594 215.25 954.955 215.25V219.25C959.116 219.25 961.097 220.344 961.946 221.74L965.363 219.66ZM954.955 215.25C951.638 215.25 948.512 216.229 945.61 218.126L947.799 221.474C950.098 219.971 952.472 219.25 954.955 219.25V215.25ZM945.657 218.097C942.826 219.839 940.51 222.037 938.741 224.691L942.069 226.909C943.5 224.763 945.384 222.961 947.753 221.503L945.657 218.097ZM938.763 224.658C937.02 227.163 936.005 229.708 936.005 232.25H940.005C940.005 230.792 940.589 229.037 942.047 226.942L938.763 224.658ZM936.005 232.25V308H940.005V232.25H936.005ZM938.005 306H927.505V310H938.005V306ZM929.505 308V229.25H925.505V308H929.505ZM929.505 229.25C929.505 225.579 928.748 222.346 927.113 219.66L923.696 221.74C924.862 223.654 925.505 226.121 925.505 229.25H929.505ZM927.113 219.66C925.163 216.456 921.344 215.25 916.705 215.25V219.25C920.866 219.25 922.847 220.344 923.696 221.74L927.113 219.66ZM916.705 215.25C913.415 215.25 910.305 216.163 907.407 217.947L909.503 221.353C911.805 219.937 914.195 219.25 916.705 219.25V215.25ZM907.407 217.947C904.594 219.678 902.284 221.812 900.513 224.358L903.797 226.642C905.226 224.588 907.116 222.822 909.503 221.353L907.407 217.947ZM900.537 224.324C898.777 226.745 897.755 229.249 897.755 231.8H901.755C901.755 230.351 902.333 228.655 903.772 226.676L900.537 224.324ZM897.755 231.8V308H901.755V231.8H897.755ZM899.755 306H889.255V310H899.755V306Z"
              fill="#FAFFFF" mask="url(#path-2-outside-1_214_2)"/>
    </g>
    <defs>
        <linearGradient id="paint0_linear_214_2" x1="725" y1="0" x2="725" y2="518" gradientUnits="userSpaceOnUse">
            <stop offset="0.306667" stop-color="#003333"/>
            <stop offset="1" stop-color="#737373" stop-opacity="0"/>
        </linearGradient>
        <clipPath id="clip0_214_2">
            <rect width="1450" height="518" fill="white"/>
        </clipPath>
    </defs>
</svg>
